<svg xmlns="http://www.w3.org/2000/svg" viewBox="0 0 768 768" role="img" aria-labelledby="title desc">
  <title id="title">Praxeon Token icon</title>
  <desc id="desc">Praxeon Token symbol on a circular field.</desc>
  <circle cx="384" cy="384" r="368" fill="#E44B2D"/>
  <path fill="#FFFFFF" fill-rule="evenodd" transform="translate(115.20 115.20) scale(0.7)" d="M 142 41 L 142 44 L 141 45 L 141 48 L 140 49 L 140 52 L 139 53 L 139 56 L 138 57 L 138 61 L 137 62 L 137 65 L 136 66 L 136 69 L 135 70 L 135 73 L 134 74 L 134 77 L 133 78 L 133 81 L 132 82 L 132 86 L 131 87 L 129 98 L 137 103 L 140 106 L 148 111 L 162 122 L 166 124 L 177 133 L 181 135 L 184 138 L 184 141 L 183 142 L 183 146 L 182 147 L 182 150 L 181 151 L 181 155 L 180 156 L 180 159 L 179 160 L 179 164 L 178 165 L 178 168 L 177 169 L 177 172 L 176 173 L 176 177 L 175 178 L 175 181 L 174 182 L 174 186 L 173 187 L 173 190 L 172 191 L 172 194 L 171 195 L 171 198 L 170 199 L 170 202 L 169 203 L 169 206 L 168 207 L 168 210 L 167 211 L 167 214 L 166 215 L 166 219 L 165 220 L 165 223 L 164 224 L 164 227 L 163 228 L 163 231 L 162 232 L 162 236 L 161 237 L 161 240 L 160 241 L 160 244 L 159 245 L 159 249 L 158 250 L 158 253 L 157 254 L 157 257 L 156 258 L 156 261 L 155 262 L 155 265 L 154 266 L 154 270 L 153 271 L 153 274 L 152 275 L 152 278 L 151 279 L 151 282 L 150 283 L 150 286 L 149 287 L 149 290 L 148 291 L 148 294 L 147 295 L 147 298 L 146 299 L 146 303 L 145 304 L 145 307 L 144 308 L 144 311 L 143 312 L 143 315 L 142 316 L 142 320 L 141 321 L 141 324 L 140 325 L 140 328 L 139 329 L 139 332 L 138 333 L 138 336 L 137 337 L 137 340 L 136 341 L 136 344 L 135 345 L 135 349 L 134 350 L 134 353 L 133 354 L 133 357 L 132 358 L 132 361 L 131 362 L 131 365 L 130 366 L 130 369 L 129 370 L 129 374 L 128 375 L 128 378 L 127 379 L 127 382 L 126 383 L 126 387 L 125 388 L 125 391 L 124 392 L 124 395 L 123 396 L 123 399 L 122 400 L 122 403 L 121 404 L 121 407 L 120 408 L 120 412 L 119 413 L 119 416 L 118 417 L 118 420 L 117 421 L 117 424 L 116 425 L 116 429 L 115 430 L 115 433 L 114 434 L 114 437 L 113 438 L 113 441 L 112 442 L 112 446 L 111 447 L 111 450 L 110 451 L 110 454 L 109 455 L 109 459 L 108 460 L 108 463 L 107 464 L 107 467 L 106 468 L 106 471 L 105 472 L 105 475 L 104 476 L 104 480 L 103 481 L 103 484 L 102 485 L 102 488 L 101 489 L 101 492 L 100 493 L 100 497 L 99 498 L 99 501 L 98 502 L 98 505 L 97 506 L 97 509 L 96 510 L 96 513 L 95 514 L 95 518 L 94 519 L 94 522 L 93 523 L 93 526 L 92 527 L 92 530 L 91 531 L 91 534 L 90 535 L 90 539 L 89 540 L 89 543 L 88 544 L 88 547 L 87 548 L 87 551 L 86 552 L 86 556 L 85 557 L 85 560 L 84 561 L 84 565 L 85 564 L 96 563 L 97 562 L 101 562 L 102 561 L 107 561 L 108 560 L 112 560 L 113 559 L 118 559 L 119 558 L 129 557 L 130 556 L 134 556 L 135 555 L 140 555 L 141 554 L 145 554 L 146 553 L 150 553 L 151 552 L 156 552 L 157 551 L 161 551 L 162 550 L 173 549 L 174 548 L 178 548 L 179 547 L 183 547 L 184 546 L 189 546 L 190 545 L 200 544 L 201 543 L 205 543 L 206 542 L 211 542 L 212 541 L 223 540 L 224 539 L 228 539 L 229 538 L 233 538 L 234 537 L 239 537 L 240 536 L 244 536 L 245 535 L 250 535 L 251 534 L 255 534 L 256 533 L 261 533 L 262 532 L 272 531 L 273 530 L 278 530 L 279 529 L 284 529 L 285 528 L 290 528 L 291 527 L 297 527 L 298 526 L 303 526 L 304 525 L 309 525 L 310 524 L 316 524 L 317 523 L 322 523 L 323 522 L 328 522 L 329 521 L 335 521 L 336 520 L 342 520 L 343 519 L 355 518 L 356 517 L 361 517 L 362 516 L 368 516 L 369 515 L 382 514 L 383 513 L 388 513 L 389 512 L 396 512 L 397 511 L 410 510 L 411 509 L 416 509 L 417 508 L 424 508 L 425 507 L 430 507 L 431 506 L 436 506 L 437 505 L 443 505 L 444 504 L 450 504 L 451 503 L 457 503 L 458 502 L 463 502 L 464 501 L 471 501 L 472 500 L 478 500 L 479 499 L 485 499 L 486 498 L 492 498 L 493 497 L 499 497 L 500 496 L 508 496 L 509 495 L 514 495 L 515 494 L 520 494 L 521 493 L 527 493 L 528 492 L 531 492 L 532 491 L 536 491 L 537 490 L 544 489 L 548 487 L 551 487 L 555 485 L 558 485 L 559 484 L 567 482 L 570 480 L 575 479 L 591 471 L 593 471 L 595 469 L 607 463 L 609 461 L 619 455 L 623 451 L 624 451 L 628 447 L 629 447 L 647 429 L 647 428 L 657 416 L 657 415 L 661 410 L 662 407 L 664 405 L 665 402 L 667 400 L 676 382 L 676 380 L 681 370 L 683 362 L 685 359 L 685 357 L 687 353 L 687 350 L 689 346 L 689 343 L 690 342 L 690 339 L 691 338 L 691 335 L 692 334 L 692 331 L 693 330 L 693 326 L 694 325 L 694 322 L 695 321 L 695 317 L 696 316 L 696 313 L 697 312 L 697 309 L 698 308 L 698 305 L 699 304 L 699 301 L 700 300 L 700 297 L 701 296 L 701 292 L 702 291 L 702 288 L 703 287 L 703 284 L 704 283 L 704 279 L 705 278 L 705 275 L 706 274 L 706 271 L 707 270 L 707 266 L 708 265 L 709 257 L 710 256 L 710 253 L 711 252 L 711 249 L 712 248 L 712 244 L 713 243 L 713 240 L 714 239 L 714 235 L 715 234 L 715 230 L 716 229 L 716 224 L 717 223 L 717 217 L 718 216 L 718 210 L 719 209 L 719 200 L 720 199 L 720 165 L 719 164 L 719 156 L 718 155 L 718 150 L 717 149 L 717 145 L 716 144 L 715 137 L 714 136 L 710 122 L 703 108 L 701 106 L 700 103 L 697 100 L 695 96 L 679 79 L 678 79 L 670 72 L 669 72 L 661 66 L 643 57 L 641 57 L 638 55 L 636 55 L 630 52 L 627 52 L 620 49 L 616 49 L 615 48 L 612 48 L 611 47 L 608 47 L 607 46 L 598 45 L 597 44 L 591 44 L 590 43 L 585 43 L 584 42 L 575 42 L 574 41 L 554 41 L 553 40 L 144 40 Z M 359 175 L 500 175 L 501 176 L 508 176 L 509 177 L 513 177 L 514 178 L 521 179 L 524 181 L 526 181 L 530 183 L 532 185 L 536 187 L 540 191 L 540 192 L 543 195 L 546 200 L 546 202 L 548 206 L 548 210 L 549 211 L 549 231 L 548 232 L 548 237 L 547 238 L 546 247 L 545 248 L 545 251 L 544 252 L 544 256 L 543 257 L 543 260 L 542 261 L 542 265 L 541 266 L 541 269 L 540 270 L 540 273 L 539 274 L 539 277 L 538 278 L 538 281 L 537 282 L 537 285 L 536 286 L 536 289 L 535 290 L 535 293 L 534 294 L 534 298 L 533 299 L 533 302 L 532 303 L 530 314 L 529 315 L 526 326 L 520 338 L 518 340 L 516 344 L 505 356 L 488 367 L 486 367 L 478 371 L 475 371 L 471 373 L 463 374 L 462 375 L 457 375 L 456 376 L 445 377 L 444 378 L 430 379 L 429 380 L 423 380 L 422 381 L 416 381 L 415 382 L 408 382 L 407 383 L 402 383 L 401 384 L 394 384 L 393 385 L 380 386 L 379 387 L 372 387 L 371 388 L 356 389 L 355 390 L 349 390 L 348 391 L 343 391 L 342 392 L 335 392 L 334 393 L 322 394 L 321 395 L 315 395 L 314 396 L 307 396 L 306 395 L 307 394 L 307 390 L 308 389 L 308 386 L 309 385 L 309 382 L 310 381 L 310 377 L 311 376 L 311 373 L 312 372 L 312 369 L 313 368 L 313 365 L 314 364 L 314 361 L 315 360 L 315 356 L 316 355 L 316 352 L 317 351 L 317 347 L 318 346 L 318 343 L 319 342 L 319 339 L 320 338 L 320 335 L 321 334 L 321 331 L 322 330 L 322 327 L 323 326 L 323 322 L 324 321 L 324 318 L 325 317 L 325 313 L 326 312 L 326 309 L 327 308 L 327 305 L 328 304 L 328 301 L 329 300 L 329 297 L 330 296 L 330 293 L 331 292 L 331 288 L 332 287 L 333 279 L 334 278 L 334 275 L 335 274 L 335 271 L 336 270 L 336 267 L 337 266 L 337 262 L 338 261 L 338 258 L 339 257 L 339 254 L 340 253 L 340 250 L 341 249 L 341 245 L 342 244 L 342 241 L 343 240 L 343 237 L 344 236 L 344 233 L 345 232 L 345 229 L 346 228 L 346 225 L 347 224 L 347 220 L 348 219 L 348 216 L 349 215 L 349 212 L 350 211 L 350 208 L 351 207 L 351 204 L 352 203 L 352 200 L 353 199 L 353 195 L 354 194 L 354 191 L 355 190 L 355 187 L 356 186 L 356 183 L 357 182 L 357 178 Z M 266 561 L 265 562 L 255 563 L 254 564 L 250 564 L 249 565 L 238 566 L 237 567 L 227 568 L 226 569 L 221 569 L 220 570 L 216 570 L 215 571 L 211 571 L 210 572 L 205 572 L 204 573 L 200 573 L 199 574 L 188 575 L 187 576 L 177 577 L 176 578 L 172 578 L 171 579 L 166 579 L 165 580 L 161 580 L 160 581 L 155 581 L 154 582 L 149 582 L 148 583 L 138 584 L 137 585 L 133 585 L 132 586 L 127 586 L 126 587 L 122 587 L 121 588 L 116 588 L 115 589 L 111 589 L 110 590 L 106 590 L 105 591 L 100 591 L 99 592 L 88 593 L 87 594 L 83 594 L 82 595 L 77 595 L 76 597 L 76 600 L 75 601 L 75 605 L 74 606 L 73 613 L 72 614 L 72 617 L 71 618 L 71 621 L 70 622 L 70 625 L 69 626 L 69 629 L 68 630 L 68 634 L 67 635 L 67 638 L 66 639 L 66 642 L 65 643 L 65 647 L 64 648 L 64 651 L 63 652 L 63 655 L 62 656 L 62 659 L 61 660 L 61 663 L 60 664 L 60 668 L 59 669 L 59 672 L 58 673 L 58 676 L 57 677 L 57 680 L 56 681 L 56 685 L 55 686 L 55 689 L 54 690 L 54 693 L 53 694 L 53 697 L 52 698 L 52 701 L 51 702 L 51 706 L 50 707 L 50 710 L 49 711 L 49 714 L 48 715 L 48 718 L 47 719 L 46 727 L 48 727 L 49 726 L 62 725 L 63 724 L 69 724 L 70 723 L 76 723 L 77 722 L 83 722 L 84 721 L 90 721 L 91 720 L 97 720 L 98 719 L 103 719 L 104 718 L 111 718 L 112 717 L 117 717 L 118 716 L 123 716 L 124 715 L 137 714 L 138 713 L 143 713 L 144 712 L 157 711 L 158 710 L 163 710 L 164 709 L 170 709 L 171 708 L 177 708 L 178 707 L 184 707 L 185 706 L 190 706 L 191 705 L 196 705 L 197 704 L 203 704 L 204 703 L 210 703 L 211 702 L 217 702 L 218 701 L 224 701 L 225 700 L 230 700 L 231 699 L 234 699 L 234 696 L 235 695 L 235 692 L 236 691 L 236 688 L 237 687 L 237 684 L 238 683 L 238 679 L 239 678 L 239 675 L 240 674 L 240 671 L 241 670 L 241 666 L 242 665 L 242 662 L 243 661 L 243 658 L 244 657 L 244 653 L 245 652 L 245 649 L 246 648 L 246 645 L 247 644 L 247 641 L 248 640 L 248 637 L 249 636 L 249 633 L 250 632 L 250 629 L 251 628 L 251 625 L 252 624 L 252 621 L 253 620 L 253 616 L 254 615 L 254 612 L 255 611 L 255 608 L 256 607 L 256 604 L 257 603 L 257 600 L 258 599 L 258 595 L 259 594 L 259 591 L 260 590 L 260 587 L 261 586 L 261 582 L 262 581 L 262 578 L 263 577 L 263 574 L 264 573 L 264 570 L 265 569 L 265 566 L 266 565 Z"/>
</svg>
